<svg width="570" height="588" viewBox="0 0 570 588" fill="none" xmlns="http://www.w3.org/2000/svg">
<g clip-path="url(#clip0_1_2)">
<path d="M176.881 65.0614C176.881 57.5547 170.796 51.4694 163.289 51.4694H94.8948C85.0505 51.4694 77.0694 59.4494 77.0694 69.2947C77.0694 79.14 85.0505 87.1201 94.8948 87.1201H137.757C142.188 87.1201 145.779 90.712 145.779 95.1414C145.779 99.572 149.371 103.164 153.8 103.164H250.743C257.512 103.164 262.999 97.676 262.999 90.908C262.999 84.14 257.512 78.6534 250.743 78.6534H190.473C182.967 78.6534 176.881 72.568 176.881 65.0614" fill="#B4E5F9"/>
<path d="M374.729 28.0814V26.076C374.729 21.2774 370.839 17.3867 366.04 17.3867H361.695C356.896 17.3867 353.005 13.4961 353.005 8.69739C353.005 3.89739 349.115 0.0067011 344.315 0.0067011H298.525C293.727 0.0067011 289.836 3.89739 289.836 8.69739C289.836 13.4961 285.945 17.3867 281.145 17.3867H256.245C248.031 17.3867 241.372 24.0454 241.372 32.26C241.372 40.4734 248.031 47.1334 256.245 47.1334H351.167C354.397 47.1334 357.016 49.752 357.016 52.9827C357.016 56.212 359.635 58.8307 362.864 58.8307H407.484C413.576 58.8307 418.513 53.8934 418.513 47.8014C418.513 41.7094 413.576 36.7721 407.484 36.7721H383.42C378.62 36.7721 374.729 32.8814 374.729 28.0814Z" fill="#B4E5F9"/>
<path d="M395.124 86.7307H356.912C352.143 86.7307 348.277 90.596 348.277 95.3654C348.277 100.135 352.143 104.001 356.912 104.001H395.124C399.893 104.001 403.759 100.135 403.759 95.3654C403.759 90.596 399.893 86.7307 395.124 86.7307Z" fill="#B4E5F9"/>
<path d="M24.6036 304.763C23.5688 311.939 25.8027 319.739 30.5516 325.527C32.0317 327.331 33.8109 329.079 34.3109 331.335C34.8803 333.905 33.5891 336.443 31.8604 338.249C30.1323 340.055 27.964 341.371 26.1953 343.135C21.8136 347.507 20.3265 354.675 22.5197 360.857C24.7136 367.04 30.4787 371.932 36.7735 372.951C39.9177 373.46 43.0745 373.072 46.2323 373.177C49.3901 373.284 52.7656 373.993 55.1541 376.249C57.8995 378.841 58.7255 382.873 58.8645 386.577C59.0041 390.283 58.6312 394.043 59.6443 397.659C61.7713 405.251 69.6251 410.241 77.2188 411.404C84.8125 412.567 92.3172 410.747 99.7021 409.284C107.087 407.823 116.059 405.915 123.404 408.455L36.1708 287.047C30.0828 290.545 25.6385 297.587 24.6036 304.763" fill="#A9E3F8"/>
<path d="M56.6521 281.736C63.7833 283.044 70.4625 287.649 74.4328 293.997C75.6703 295.976 76.7604 298.22 78.738 299.413C80.9927 300.773 83.8104 300.359 86.0729 299.297C88.3355 298.235 90.2751 296.6 92.5109 295.487C98.0527 292.728 105.32 293.607 110.48 297.657C115.64 301.708 118.436 308.733 117.394 315.024C116.874 318.167 115.498 321.035 114.592 324.061C113.685 327.088 113.279 330.513 114.656 333.497C116.237 336.925 119.794 338.995 123.261 340.308C126.728 341.623 130.41 342.469 133.513 344.583C140.031 349.021 142.255 358.056 140.935 365.624C139.613 373.192 135.495 379.724 131.753 386.256C128.01 392.789 123.34 400.683 123.404 408.455L36.1708 287.047C41.4292 282.392 49.5203 280.427 56.6521 281.736" fill="#8BD0F2"/>
<path d="M111.096 388.295L129.171 353.443L108.824 385.249L85.7849 354.365L101.816 308.544L84.3036 352.38L63.3912 324.347L63.8864 292.923L62.0631 322.567L39.8407 292.153L61.5745 322.917L32.8973 315.188L62.838 324.744L82.7339 353.507L35.6016 356.12L84.1432 355.545L106.063 387.233L69.4271 396.369L108.224 390.357L120.175 407.635C121.277 407.831 122.358 408.093 123.404 408.455C123.395 407.348 123.491 406.24 123.657 405.133L111.096 388.295" fill="white"/>
<path d="M413.125 163.296C416.883 169.888 417.696 178.34 415.288 185.796C414.539 188.12 413.476 190.505 413.853 192.892C414.283 195.615 416.513 197.591 418.888 198.688C421.263 199.784 423.88 200.235 426.277 201.275C432.22 203.853 436.415 210.265 436.648 217.127C436.881 223.988 433.141 230.96 427.401 234.365C424.535 236.065 421.311 236.897 418.277 238.211C415.243 239.524 412.227 241.508 410.764 244.62C409.085 248.197 409.825 252.439 411.109 256.1C412.392 259.763 414.196 263.281 414.596 267.191C415.433 275.4 409.697 283.269 402.748 287.311C395.797 291.353 387.792 292.456 380.04 293.863C372.287 295.268 362.819 296.848 356.639 302.136L395.071 150.475C402.341 151.549 409.367 156.704 413.125 163.296" fill="#F68D24"/>
<path d="M373.091 153.151C366.647 157.157 361.907 164.203 360.473 171.905C360.025 174.305 359.824 176.909 358.356 178.829C356.68 181.017 353.777 181.693 351.168 181.527C348.557 181.36 346.043 180.509 343.437 180.283C336.984 179.72 330.243 183.36 326.771 189.283C323.297 195.204 323.265 203.117 326.691 208.844C328.403 211.705 330.841 213.971 332.884 216.571C334.925 219.172 336.633 222.352 336.436 225.785C336.211 229.729 333.539 233.108 330.667 235.716C327.793 238.324 324.532 240.56 322.32 243.807C317.673 250.627 318.969 260.277 323.155 267.141C327.341 274.005 333.855 278.788 340.003 283.716C346.151 288.644 353.724 294.543 356.639 302.136L395.071 150.475C388.167 147.957 379.535 149.144 373.091 153.151" fill="#FAB32E"/>
<path d="M360.901 277.785L329.943 250.772L361.947 273.949L372.549 235.045L339.379 196.564L373.231 232.544L382.855 197.231L370.332 166.817L383.467 194.988L393.455 156.855L384.077 195.143L409.043 176.627L383.547 197.405L375.192 233.04L422.093 217.524L374.6 235.565L365.396 274.824L404.575 269.684L364.488 278.695L359.469 300.1C358.471 300.713 357.519 301.383 356.639 302.136C356.224 301.055 355.705 300.012 355.12 298.997L360.901 277.785" fill="white"/>
<path d="M303.028 98.0121L276.159 243.468C315.6 249.731 353.188 223.329 360.483 183.835C367.779 144.341 342.104 106.255 303.028 98.0121ZM273.605 246.871C272.577 246.681 271.897 245.693 272.087 244.665L299.653 95.4387C299.844 94.4107 300.831 93.7321 301.859 93.9214C344.028 101.712 371.996 142.355 364.207 184.523C356.416 226.692 315.773 254.661 273.605 246.871Z" fill="#A16ABC"/>
<path d="M355.368 182.891C348.468 220.245 312.592 244.933 275.237 238.033C237.883 231.132 213.195 195.256 220.095 157.901C226.995 120.547 262.871 95.8587 300.227 102.759C337.581 109.66 362.269 145.536 355.368 182.891Z" fill="#A9E3F8"/>
<path d="M355.368 182.891C362.269 145.536 337.581 109.66 300.227 102.759L275.237 238.033C312.592 244.933 348.468 220.245 355.368 182.891" fill="#8BD0F2"/>
<path d="M309.087 260.859L235.467 247.259C232.04 246.625 228.748 248.891 228.116 252.317C227.483 255.744 229.748 259.035 233.175 259.668L306.795 273.268C310.221 273.901 313.512 271.636 314.145 268.209C314.779 264.783 312.513 261.491 309.087 260.859Z" fill="#5E2791"/>
<path d="M274.627 241.337C272.46 240.937 270.379 242.369 269.979 244.536L268.039 255.04L275.885 256.489L277.825 245.985C278.225 243.819 276.793 241.739 274.627 241.337" fill="#5E2791"/>
<path d="M238.215 168.475C237.503 172.333 240.052 176.04 243.912 176.753L268.467 181.289C276.177 182.713 283.583 177.617 285.007 169.907C286.431 162.196 281.335 154.791 273.624 153.367C266.485 152.047 261.767 145.191 263.085 138.051C264.131 132.396 260.393 126.967 254.739 125.921L238.051 122.839C229.072 132.2 222.627 144.192 220.095 157.901L232.519 160.197C236.377 160.909 238.928 164.616 238.215 168.475" fill="#B884C8"/>
<path d="M343.516 159.432C341.975 159.148 340.955 157.667 341.24 156.124L342.577 148.885C343.516 143.803 340.156 138.92 335.073 137.981L315.424 134.351C310.227 133.391 305.235 136.827 304.275 142.024L301.905 154.848C300.945 160.045 304.38 165.036 309.579 165.997C317.86 167.527 323.333 175.48 321.804 183.763L321.517 185.313C319.829 194.452 311.052 200.492 301.913 198.804L284.747 195.632C279.605 194.683 274.669 198.08 273.72 203.22C272.769 208.361 276.167 213.297 281.308 214.248L315.332 220.532C320.529 221.493 325.521 218.057 326.481 212.86C326.977 210.176 329.555 208.401 332.24 208.897C334.924 209.393 337.503 207.619 337.999 204.935L345.792 162.74C346.077 161.199 345.059 159.717 343.516 159.432" fill="#B884C8"/>
<path d="M300.54 124.949C299.751 129.221 295.648 132.045 291.376 131.256C287.104 130.467 284.281 126.364 285.071 122.092C285.859 117.82 289.963 114.996 294.235 115.785C298.507 116.575 301.329 120.677 300.54 124.949Z" fill="#B884C8"/>
<path d="M250.801 192.249L249.927 196.98C249.563 198.951 250.865 200.844 252.836 201.208C254.807 201.572 256.108 203.464 255.744 205.435L254.627 211.484C254.263 213.455 255.565 215.347 257.536 215.712C259.507 216.076 261.399 214.773 261.763 212.803L265.072 194.885C265.436 192.915 264.135 191.023 262.164 190.659L255.028 189.34C253.057 188.976 251.165 190.279 250.801 192.249" fill="#B884C8"/>
<path d="M337.999 204.935L345.792 162.74C346.077 161.199 345.059 159.717 343.516 159.432C341.975 159.148 340.955 157.667 341.24 156.124L342.577 148.885C343.516 143.801 340.156 138.92 335.073 137.981L315.424 134.351C310.227 133.391 305.235 136.827 304.275 142.024L301.905 154.847C300.945 160.045 304.38 165.036 309.579 165.997C317.86 167.527 323.333 175.48 321.804 183.763L321.517 185.313C319.829 194.452 311.052 200.492 301.913 198.804L284.747 195.632C284.192 195.529 283.641 195.488 283.097 195.483L279.715 213.797C280.224 213.988 280.753 214.145 281.308 214.248L315.332 220.532C320.529 221.493 325.521 218.057 326.481 212.86C326.977 210.176 329.555 208.401 332.24 208.897C334.924 209.393 337.503 207.619 337.999 204.935" fill="#A66CBD"/>
<path d="M294.996 131.068C297.76 130.264 299.981 127.973 300.54 124.949C301.099 121.925 299.843 118.992 297.548 117.253L294.996 131.068" fill="#A66CBD"/>
<path d="M229.447 149.42C229.283 149.389 229.117 149.343 228.957 149.277C227.665 148.755 227.041 147.284 227.564 145.992C236.776 123.213 258.572 107.371 283.091 105.629C284.477 105.535 285.688 106.579 285.788 107.968C285.885 109.359 284.839 110.567 283.448 110.667C260.839 112.271 240.739 126.88 232.243 147.884C231.785 149.015 230.603 149.633 229.447 149.42" fill="white"/>
<path d="M155.608 167.252C152.284 173.064 151.557 180.523 153.672 187.105C154.331 189.157 155.267 191.263 154.931 193.369C154.548 195.771 152.577 197.513 150.48 198.477C148.383 199.441 146.073 199.837 143.956 200.752C138.708 203.02 134.999 208.673 134.785 214.728C134.572 220.783 137.864 226.941 142.925 229.952C145.453 231.456 148.297 232.193 150.973 233.357C153.649 234.52 156.309 236.273 157.595 239.021C159.073 242.18 158.415 245.924 157.277 249.153C156.14 252.383 154.544 255.485 154.188 258.935C153.439 266.179 158.492 273.131 164.62 276.705C170.748 280.281 177.812 281.264 184.651 282.513C191.491 283.763 199.845 285.168 205.292 289.843L171.555 155.959C165.139 156.899 158.932 161.439 155.608 167.252" fill="#B884C8"/>
<path d="M190.949 158.345C196.631 161.889 200.805 168.112 202.063 174.911C202.455 177.031 202.629 179.328 203.923 181.024C205.399 182.957 207.959 183.557 210.263 183.413C212.567 183.268 214.787 182.521 217.085 182.324C222.781 181.835 228.727 185.056 231.784 190.285C234.841 195.516 234.86 202.499 231.831 207.549C230.317 210.072 228.163 212.069 226.357 214.361C224.552 216.653 223.041 219.457 223.211 222.488C223.405 225.969 225.759 228.953 228.291 231.259C230.823 233.564 233.699 235.54 235.648 238.408C239.74 244.432 238.584 252.948 234.883 259C231.18 265.053 225.427 269.265 219.995 273.607C214.564 277.949 207.873 283.145 205.292 289.843L171.555 155.959C177.651 153.745 185.268 154.803 190.949 158.345Z" fill="#CFA4D8"/>
<path d="M201.56 268.349L228.912 244.545L200.641 264.963L191.331 230.617L220.648 196.697L190.732 228.409L182.28 197.235L193.368 170.409L181.744 195.255L172.975 161.591L181.205 195.391L159.195 179.02L181.671 197.388L189.001 228.845L147.629 215.097L189.52 231.073L197.597 265.729L163.028 261.148L198.393 269.147L202.797 288.043C203.677 288.585 204.517 289.177 205.292 289.843C205.66 288.889 206.119 287.969 206.637 287.075L201.56 268.349" fill="white"/>
<path d="M2.01512 409.225C4.51876 414.331 9.4146 418.393 15.0489 420.041C16.8057 420.555 18.7312 420.9 20.0521 422.14C21.5579 423.552 21.8437 425.768 21.5235 427.701C21.2027 429.635 20.3803 431.445 20.0151 433.371C19.1109 438.139 21.3183 443.439 25.4724 446.472C29.6271 449.507 35.5235 450.124 40.0511 448.001C42.312 446.94 44.1844 445.292 46.2765 443.965C48.3683 442.637 50.8677 441.603 53.4125 442.008C56.3364 442.473 58.6541 444.719 60.3828 447.056C62.1115 449.393 63.5328 451.993 65.7875 453.887C70.5235 457.862 77.8156 457.621 83.2473 455.016C88.6792 452.412 92.7344 447.915 96.8697 443.701C101.006 439.488 105.972 434.285 111.852 432.683L1.67137 392.637C-0.723944 397.595 -0.488007 404.12 2.01512 409.225" fill="#B884C8"/>
<path d="M12.586 380.14C17.7828 377.835 24.1454 377.863 29.523 380.217C31.1995 380.952 32.8979 381.923 34.7058 381.821C36.7678 381.705 38.4088 380.191 39.4047 378.503C40.4 376.815 40.9328 374.897 41.8886 373.188C44.2574 368.951 49.3527 366.305 54.4855 366.647C59.6183 366.989 64.5355 370.301 66.6427 374.836C67.6954 377.101 68.073 379.567 68.824 381.928C69.5755 384.288 70.8276 386.685 73.0386 388.009C75.5787 389.531 78.797 389.297 81.6235 388.615C84.4495 387.933 87.2084 386.853 90.1527 386.849C96.3364 386.841 101.772 391.709 104.264 397.193C106.755 402.679 106.976 408.729 107.442 414.615C107.907 420.5 108.373 427.677 111.852 432.683L1.67139 392.637C3.01877 387.297 7.38909 382.447 12.586 380.14" fill="#CFA4D8"/>
<path d="M94.9656 425.069L91.2588 394.507L92.1479 424.103L63.5708 414.291L53.6891 377.528L61.7334 413.66L35.7938 404.755H35.7943L22.2178 384.185L34.147 404.189L6.30627 394.321L33.9855 404.632L11.9969 412.308L35.612 405.257L61.2156 415.084L31.8484 437.619L63.0297 415.781L91.2369 426.608L71.5531 448.727L94.0188 427.676L109.398 433.579C110.198 433.219 111.015 432.911 111.852 432.683C111.357 431.969 110.929 431.209 110.547 430.419L94.9656 425.069" fill="white"/>
<path d="M110.965 253.724C111.49 255.861 113.648 257.169 115.787 256.644C117.925 256.12 119.233 253.96 118.708 251.823C118.183 249.684 116.024 248.376 113.886 248.901C111.747 249.425 110.44 251.585 110.965 253.724" fill="#402567"/>
<path d="M174.937 383.237L179.636 402.371C179.928 403.56 179.2 404.76 178.012 405.051C176.824 405.343 175.624 404.616 175.332 403.428L170.635 384.295L174.937 383.237" fill="#5E2791"/>
<path d="M112.814 111.472C136.529 149.2 154.633 225.479 159.169 245.771C159.797 248.58 158.06 251.368 155.265 252.055L127.314 258.917C124.519 259.603 121.688 257.936 120.944 255.157C115.567 235.071 96.2855 159.081 99.8303 114.66C100.367 107.94 109.227 105.765 112.814 111.472Z" fill="#F68D24"/>
<path d="M132.59 153.721L101.871 161.263C101.403 157.508 100.987 153.776 100.639 150.095L128.509 143.252C129.905 146.676 131.265 150.177 132.59 153.721" fill="#5E2791"/>
<path d="M93.4088 151.869L106.243 148.719L108.899 159.537L96.6036 162.556C94.6041 163.048 93.3812 165.067 93.8724 167.065L116.022 257.277C116.586 259.576 115.18 261.896 112.882 262.46C110.584 263.024 108.264 261.619 107.699 259.321L84.8052 166.073C83.2588 159.776 87.1109 153.416 93.4088 151.869" fill="#5E2791"/>
<path d="M141.289 255.485L155.34 252.036L179.412 350.079C182.928 364.396 183.255 379.312 180.371 393.771L170.697 396.145C161.444 384.667 154.827 371.296 151.312 356.979L127.24 258.935L141.289 255.485" fill="#F68D24"/>
<path d="M150.389 353.223L178.491 346.323L176.911 339.889L148.811 346.789L150.389 353.223Z" fill="#FAB32E"/>
<path d="M128.819 265.368L156.92 258.469L155.34 252.036L127.24 258.935L128.819 265.368" fill="#C56D1C"/>
<path d="M152.548 249.579C154.457 249.109 155.639 247.189 155.187 245.272C139.207 177.237 131.276 158.971 130.946 158.227C130.143 156.415 128.019 155.587 126.21 156.399C124.398 157.201 123.581 159.319 124.379 161.129C124.457 161.309 132.449 179.863 148.197 246.912C148.651 248.841 150.583 250.041 152.512 249.587C152.524 249.584 152.536 249.581 152.548 249.579" fill="#FAB32E"/>
<path d="M169.115 337.751C171.04 337.279 172.217 335.335 171.744 333.409L154.724 264.084C154.251 262.159 152.307 260.981 150.381 261.453C148.456 261.927 147.279 263.871 147.751 265.796L164.772 335.121C165.245 337.047 167.189 338.224 169.115 337.751" fill="#FAB32E"/>
<path d="M55.926 244.041L131.159 402.775C133.547 407.813 139.568 409.961 144.607 407.573L154.869 402.709C159.908 400.321 162.057 394.301 159.669 389.263L84.436 230.529L55.926 244.041Z" fill="#E23229"/>
<path d="M126.801 393.58L131.159 402.775C133.547 407.813 139.568 409.961 144.607 407.573L154.869 402.709C159.908 400.321 162.057 394.301 159.669 389.263L155.311 380.067L126.801 393.58" fill="#FDEEC5"/>
<path d="M45.1151 184.399L55.926 244.041L70.1807 237.285L84.436 230.529L45.1151 184.399Z" fill="#FDEEC5"/>
<path d="M45.1151 184.399L48.612 203.691L57.8339 199.32L45.1151 184.399Z" fill="#5E2791"/>
<path d="M151.201 371.396L122.691 384.908L126.801 393.58L155.311 380.067L151.201 371.396Z" fill="#5E2791"/>
<path d="M132.768 373.757L124.657 377.601L63.2203 247.979L71.3323 244.133L132.768 373.757" fill="#F1443D"/>
<path d="M551.86 321.044C546.377 320.035 540.32 321.517 535.732 324.992C534.301 326.076 532.905 327.391 531.159 327.707C529.167 328.068 527.255 327 525.92 325.617C524.584 324.236 523.639 322.532 522.336 321.12C519.108 317.623 513.647 316.267 508.832 317.767C504.017 319.268 500.087 323.549 499.116 328.355C498.631 330.755 498.835 333.192 498.659 335.613C498.483 338.036 497.839 340.608 496.033 342.376C493.96 344.407 490.839 344.921 487.988 344.917C485.139 344.913 482.261 344.515 479.453 345.185C473.557 346.592 469.489 352.476 468.369 358.275C467.249 364.073 468.423 369.892 469.325 375.609C470.228 381.325 471.427 388.275 469.255 393.84L565.123 330.459C562.617 325.677 557.341 322.053 551.86 321.044" fill="#F68D24"/>
<path d="M568.591 346.351C567.372 351.789 563.635 356.783 558.64 359.643C557.084 360.533 555.327 361.304 554.352 362.788C553.24 364.479 553.473 366.656 554.221 368.425C554.969 370.195 556.168 371.733 556.956 373.485C558.909 377.824 558.017 383.381 554.752 387.223C551.485 391.065 546.007 393.004 541.204 392.016C538.807 391.521 536.644 390.38 534.347 389.592C532.048 388.805 529.429 388.392 527.096 389.36C524.416 390.472 522.72 393.143 521.607 395.767C520.493 398.391 519.733 401.193 518.017 403.515C514.413 408.388 507.407 409.827 501.632 408.587C495.859 407.345 490.964 403.987 486.057 400.917C481.152 397.847 475.227 394.023 469.255 393.84L565.123 330.459C568.54 334.637 569.809 340.911 568.591 346.351" fill="#FAB32E"/>
<path d="M485.109 384.988L511.341 399.915L487.516 383.333L511.928 366.559L546.648 380.243L513.499 365.48L535.657 350.253H535.656L559.781 351.573L537.064 349.287L561.091 333.125L536.809 348.901L543.604 327.104L535.368 349.817L512.679 364.241L512.08 327.957L511.072 365.263L486.075 381.153L480.151 352.739L483.611 382.72L469.981 391.385C469.799 392.225 469.564 393.048 469.255 393.84C470.105 393.867 470.953 393.973 471.799 394.135L485.109 384.988" fill="white"/>
<path d="M528.588 220.684C522.335 221.161 516.169 224.516 512.177 229.615C510.933 231.204 509.791 233.036 507.981 233.883C505.917 234.848 503.532 234.235 501.683 233.116C499.832 231.997 498.312 230.413 496.491 229.253C491.973 226.376 485.641 226.471 480.835 229.487C476.028 232.503 472.984 238.291 473.308 243.797C473.469 246.548 474.392 249.14 474.897 251.827C475.401 254.512 475.44 257.496 473.984 259.937C472.312 262.743 469.064 264.2 465.963 265.015C462.86 265.829 459.616 266.223 456.753 267.759C450.743 270.985 448.009 278.555 448.457 285.185C448.904 291.816 451.855 297.809 454.48 303.769C457.104 309.729 460.404 316.944 459.643 323.624L545.724 227.115C541.624 222.633 534.841 220.207 528.588 220.684" fill="#F1443D"/>
<path d="M554.064 243.407C554.301 249.675 551.671 256.181 547.059 260.728C545.621 262.145 543.932 263.488 543.297 265.383C542.573 267.543 543.453 269.843 544.776 271.553C546.099 273.264 547.844 274.593 549.205 276.272C552.577 280.431 553.204 286.733 550.756 291.852C548.307 296.971 542.903 300.655 537.395 300.959C534.644 301.112 531.963 300.491 529.237 300.295C526.511 300.099 523.543 300.401 521.283 302.125C518.685 304.105 517.608 307.499 517.152 310.673C516.695 313.847 516.673 317.116 515.473 320.133C512.953 326.472 505.743 330.051 499.105 330.361C492.467 330.671 486.177 328.423 479.957 326.493C473.736 324.564 466.192 322.107 459.643 323.624L545.724 227.115C550.643 230.679 553.827 237.14 554.064 243.407Z" fill="#E23229"/>
<path d="M474.347 309.436L507.175 318.136L476.491 306.945L498.227 281.679L539.933 286.587L499.625 280.053L519.356 257.12L545.981 251.621L520.609 255.664L542.103 231.175L520.22 255.317L521.348 229.649L518.916 256.728L498.377 278.941L487.299 239.639L496.923 280.515L474.295 304.987L459.684 275.776L472.064 307.4L459.727 320.744C459.769 321.711 459.751 322.673 459.643 323.624C460.575 323.408 461.529 323.28 462.495 323.212L474.347 309.436" fill="white"/>
<path d="M373.193 256.537C373.193 256.537 403.771 266.273 389.509 302.451C399.899 292.999 409.497 265.727 409.497 265.727L373.193 256.537Z" fill="#A16ABC"/>
<path d="M438.075 126.779L457.156 133.704C457.156 133.704 498.148 170.185 490.456 229.101C480.743 303.496 443.604 328.575 443.604 328.575H379.968L403.528 264.065H427.245C435.021 264.065 442.313 260.144 446.459 253.564C451.431 245.673 456.781 233.495 456.84 217.567C456.876 207.835 450.783 199.128 441.605 195.891L406.172 183.389L438.075 126.779" fill="#A16ABC"/>
<path d="M392.803 215.052L370.525 205.384L435.968 54.5827L458.245 64.2494L392.803 215.052" fill="#8BD0F2"/>
<path d="M400.269 197.845L377.992 188.179L386.344 168.933L408.621 178.601L400.269 197.845Z" fill="#5EA7E0"/>
<path d="M436.737 113.811L414.46 104.143L422.812 84.8987L445.089 94.5667L436.737 113.811Z" fill="#5EA7E0"/>
<path d="M408.789 194.261L374.791 179.507L412.219 93.2601L446.217 108.015L408.789 194.261Z" fill="#8BD0F2"/>
<path d="M392.241 180.573L382.139 176.188L414.813 100.893L424.917 105.279L392.241 180.573Z" fill="#A9E3F8"/>
<path d="M446.336 147.705C442.837 155.765 433.468 159.464 425.408 155.965C417.348 152.468 413.649 143.099 417.148 135.039C420.645 126.979 430.015 123.28 438.075 126.779C446.135 130.276 449.833 139.645 446.336 147.705Z" fill="#5E2791"/>
<path d="M438.684 144.385C437.02 148.22 432.563 149.979 428.728 148.315C424.893 146.651 423.135 142.193 424.799 138.359C426.463 134.524 430.92 132.765 434.755 134.429C438.589 136.093 440.349 140.551 438.684 144.385Z" fill="white"/>
<path d="M430.071 272.689L485.956 328.575H409.497V281.211C409.497 270.475 422.479 265.097 430.071 272.689Z" fill="#B884C8"/>
<path d="M429.799 281.713C429.799 286.175 426.181 289.791 421.72 289.791C417.259 289.791 413.641 286.175 413.641 281.713C413.641 277.251 417.259 273.635 421.72 273.635C426.181 273.635 429.799 277.251 429.799 281.713Z" fill="#5E2791"/>
<path d="M425.38 281.713C425.38 283.735 423.741 285.373 421.72 285.373C419.699 285.373 418.06 283.735 418.06 281.713C418.06 279.691 419.699 278.052 421.72 278.052C423.741 278.052 425.38 279.691 425.38 281.713Z" fill="white"/>
<path d="M497.536 328.575H341.633C333.861 328.575 327.56 334.876 327.56 342.648C327.56 350.42 333.861 356.721 341.633 356.721H497.536C505.309 356.721 511.609 350.42 511.609 342.648C511.609 334.876 505.309 328.575 497.536 328.575Z" fill="#5E2791"/>
<path d="M407.539 252.292L345.841 225.517C341.391 223.585 336.217 225.628 334.287 230.077C332.356 234.528 334.397 239.701 338.848 241.632L400.545 268.407C404.996 270.339 410.169 268.296 412.1 263.847C414.031 259.396 411.989 254.223 407.539 252.292Z" fill="#5E2791"/>
<path d="M393.961 356.721H408.053V328.575H393.961V356.721Z" fill="#402567"/>
<path d="M247.441 480.626H109.141C102.697 480.626 97.4745 475.402 97.4745 468.959V303.512C97.4745 297.068 102.697 291.845 109.141 291.845H247.441V480.626Z" fill="#5E2791"/>
<path d="M247.441 480.626H385.743C392.187 480.626 397.409 475.402 397.409 468.959V303.512C397.409 297.068 392.187 291.845 385.743 291.845H247.441V480.626Z" fill="#5E2791"/>
<path d="M247.441 476.838C242.115 476.838 237.796 478.533 237.796 480.626C237.796 482.716 242.115 484.411 247.441 484.411C252.769 484.411 257.088 482.716 257.088 480.626C257.088 478.533 252.769 476.838 247.441 476.838Z" fill="#5E2791"/>
<path d="M116.866 458.719C164.592 431.353 247.441 466.836 247.441 466.836V473.923L106.669 468.948L116.866 458.719" fill="#F7AB42"/>
<path d="M378.017 459.669C330.292 432.304 247.441 466.836 247.441 466.836V473.923L388.215 468.948L378.017 459.669" fill="#F7AB42"/>
<path d="M247.441 466.836C203.539 454.472 160.752 451.816 116.866 458.719C116.866 399.368 116.866 340.017 116.866 280.665C160.752 273.763 203.539 276.419 247.441 288.783C247.441 348.135 247.441 407.485 247.441 466.836Z" fill="#FDEEC5"/>
<path d="M177.885 362.529C162.872 362.088 148.232 362.577 133.389 364.015C133.389 339.896 133.389 315.779 133.389 291.66C148.232 290.223 162.872 289.735 177.885 290.175C177.885 314.293 177.885 338.411 177.885 362.529Z" fill="#A16ABC"/>
<path d="M232.044 447.791C198.459 440.263 165.848 438.236 132.264 441.588C131.333 441.699 130.578 441.035 130.578 440.099C130.578 439.161 131.333 438.307 132.264 438.196C165.848 434.844 198.459 436.871 232.044 444.399C232.975 444.625 233.729 445.575 233.729 446.511C233.729 447.447 232.975 448.017 232.044 447.791" fill="#A16ABC"/>
<path d="M232.044 434.507C198.459 426.979 165.848 424.952 132.264 428.304C131.333 428.415 130.578 427.751 130.578 426.815C130.578 425.877 131.333 425.023 132.264 424.912C165.848 421.56 198.459 423.587 232.044 431.115C232.975 431.341 233.729 432.289 233.729 433.227C233.729 434.163 232.975 434.733 232.044 434.507" fill="#A16ABC"/>
<path d="M232.044 421.223C198.459 413.695 165.848 411.668 132.265 415.02C131.333 415.131 130.578 414.467 130.578 413.531C130.578 412.593 131.333 411.739 132.265 411.628C165.848 408.276 198.459 410.303 232.044 417.831C232.975 418.057 233.729 419.007 233.729 419.943C233.729 420.879 232.975 421.449 232.044 421.223" fill="#A16ABC"/>
<path d="M232.044 407.939C198.459 400.412 165.848 398.384 132.265 401.736C131.333 401.848 130.578 401.184 130.578 400.247C130.578 399.311 131.333 398.456 132.265 398.345C165.848 394.993 198.459 397.02 232.044 404.548C232.975 404.775 233.729 405.723 233.729 406.66C233.729 407.596 232.975 408.167 232.044 407.939" fill="#A16ABC"/>
<path d="M232.044 394.655C198.459 387.128 165.848 385.1 132.265 388.452C131.333 388.564 130.578 387.9 130.578 386.963C130.578 386.027 131.333 385.172 132.265 385.061C165.848 381.709 198.459 383.736 232.044 391.264C232.975 391.491 233.729 392.439 233.729 393.376C233.729 394.312 232.975 394.883 232.044 394.655" fill="#A16ABC"/>
<path d="M232.044 381.372C198.459 373.844 165.848 371.817 132.265 375.169C131.333 375.28 130.578 374.616 130.578 373.68C130.578 372.743 131.333 371.888 132.265 371.777C165.848 368.425 198.459 370.452 232.044 377.98C232.975 378.207 233.729 379.155 233.729 380.092C233.729 381.028 232.975 381.599 232.044 381.372" fill="#A16ABC"/>
<path d="M232.044 368.088C217.995 364.593 203.685 362.367 189.411 361.045C188.468 360.963 187.704 360.141 187.704 359.205C187.704 358.268 188.468 357.571 189.411 357.655C203.685 358.975 217.995 361.201 232.044 364.696C232.975 364.923 233.729 365.871 233.729 366.808C233.729 367.744 232.975 368.315 232.044 368.088" fill="#A16ABC"/>
<path d="M232.044 354.804C217.995 351.309 203.685 349.083 189.411 347.763C188.468 347.679 187.704 346.857 187.704 345.921C187.704 344.985 188.468 344.288 189.411 344.371C203.685 345.692 217.995 347.919 232.044 351.412C232.975 351.64 233.729 352.588 233.729 353.524C233.729 354.461 232.975 355.031 232.044 354.804" fill="#A16ABC"/>
<path d="M232.044 341.52C217.995 338.027 203.685 335.8 189.411 334.479C188.468 334.396 187.704 333.575 187.704 332.637C187.704 331.701 188.468 331.004 189.411 331.087C203.685 332.408 217.995 334.635 232.044 338.129C232.975 338.356 233.729 339.304 233.729 340.241C233.729 341.177 232.975 341.748 232.044 341.52" fill="#A16ABC"/>
<path d="M232.044 328.236C217.995 324.743 203.685 322.516 189.411 321.195C188.468 321.112 187.704 320.291 187.704 319.353C187.704 318.417 188.468 317.72 189.411 317.803C203.685 319.124 217.995 321.351 232.044 324.845C232.975 325.072 233.729 326.02 233.729 326.957C233.729 327.893 232.975 328.464 232.044 328.236" fill="#A16ABC"/>
<path d="M232.044 314.953C217.995 311.459 203.685 309.232 189.411 307.911C188.468 307.828 187.704 307.007 187.704 306.071C187.704 305.133 188.468 304.436 189.411 304.52C203.685 305.84 217.995 308.067 232.044 311.561C232.975 311.788 233.729 312.736 233.729 313.673C233.729 314.609 232.975 315.18 232.044 314.953" fill="#A16ABC"/>
<path d="M232.044 301.669C217.995 298.175 203.685 295.948 189.411 294.628C188.468 294.544 187.704 293.723 187.704 292.787C187.704 291.851 188.468 291.153 189.411 291.236C203.685 292.557 217.995 294.784 232.044 298.277C232.975 298.504 233.729 299.453 233.729 300.389C233.729 301.327 232.975 301.896 232.044 301.669Z" fill="#A16ABC"/>
<path d="M378.017 459.669C334.115 452.444 291.328 454.796 247.441 466.836C247.441 407.485 247.441 348.135 247.441 288.783C291.327 276.743 334.115 274.391 378.017 281.617C378.019 340.968 378.019 400.319 378.017 459.669" fill="#FDEEC5"/>
<path d="M311.876 440.727C295.304 442.007 279.215 444.361 262.84 447.903C261.909 448.123 261.155 447.547 261.155 446.611C261.155 445.673 261.909 444.731 262.84 444.511C279.215 440.969 295.304 438.615 311.876 437.335C312.819 437.28 313.584 438.001 313.584 438.937C313.584 439.873 312.819 440.672 311.876 440.727Z" fill="#A16ABC"/>
<path d="M311.876 427.443C295.304 428.723 279.215 431.077 262.84 434.619C261.909 434.839 261.155 434.263 261.155 433.327C261.155 432.389 261.909 431.447 262.84 431.227C279.215 427.685 295.304 425.331 311.876 424.051C312.819 423.996 313.584 424.717 313.584 425.653C313.584 426.589 312.819 427.388 311.876 427.443Z" fill="#A16ABC"/>
<path d="M311.876 414.159C295.304 415.439 279.215 417.793 262.84 421.335C261.909 421.555 261.155 420.979 261.155 420.043C261.155 419.105 261.909 418.163 262.84 417.943C279.215 414.401 295.304 412.047 311.876 410.767C312.819 410.712 313.584 411.433 313.584 412.369C313.584 413.305 312.819 414.104 311.876 414.159Z" fill="#A16ABC"/>
<path d="M311.876 400.876C295.304 402.156 279.215 404.511 262.84 408.052C261.909 408.272 261.155 407.696 261.155 406.759C261.155 405.823 261.909 404.88 262.84 404.66C279.215 401.119 295.304 398.764 311.876 397.484C312.819 397.429 313.584 398.149 313.584 399.087C313.584 400.023 312.819 400.821 311.876 400.876Z" fill="#A16ABC"/>
<path d="M362.62 389.291C329.035 385.695 296.424 387.484 262.84 394.768C261.909 394.988 261.155 394.412 261.155 393.475C261.155 392.539 261.909 391.596 262.84 391.376C296.424 384.093 329.035 382.303 362.62 385.9C363.552 386.017 364.307 386.877 364.307 387.813C364.307 388.751 363.552 389.409 362.62 389.291" fill="#A16ABC"/>
<path d="M362.62 376.008C329.035 372.411 296.424 374.201 262.84 381.484C261.909 381.704 261.155 381.128 261.155 380.192C261.155 379.255 261.909 378.312 262.84 378.092C296.424 370.809 329.035 369.019 362.62 372.616C363.552 372.733 364.307 373.593 364.307 374.531C364.307 375.467 363.552 376.125 362.62 376.008" fill="#A16ABC"/>
<path d="M323.116 397.059C336.916 396.873 350.736 397.532 364.307 399.403C364.307 413.816 364.307 428.231 364.307 442.645C350.736 440.775 336.916 440.116 323.116 440.301C323.116 425.887 323.116 411.473 323.116 397.059Z" fill="#A16ABC"/>
<path d="M362.62 362.724C329.035 359.127 296.424 360.917 262.84 368.2C261.909 368.42 261.155 367.844 261.155 366.908C261.155 365.971 261.909 365.028 262.84 364.808C296.424 357.525 329.035 355.735 362.62 359.332C363.552 359.449 364.307 360.309 364.307 361.247C364.307 362.183 363.552 362.841 362.62 362.724" fill="#A16ABC"/>
<path d="M362.62 349.44C329.035 345.843 296.424 347.633 262.84 354.916C261.909 355.136 261.155 354.56 261.155 353.624C261.155 352.687 261.909 351.744 262.84 351.524C296.424 344.241 329.035 342.451 362.62 346.048C363.552 346.165 364.307 347.025 364.307 347.963C364.307 348.899 363.552 349.557 362.62 349.44" fill="#A16ABC"/>
<path d="M362.62 336.156C346.208 334.081 329.419 333.408 312.731 334.408C311.787 334.46 311.023 333.748 311.023 332.811C311.023 331.875 311.787 331.068 312.731 331.016C329.419 330.016 346.208 330.689 362.62 332.764C363.552 332.881 364.307 333.741 364.307 334.679C364.307 335.615 363.552 336.273 362.62 336.156" fill="#A16ABC"/>
<path d="M362.62 322.872C346.208 320.797 329.419 320.124 312.731 321.125C311.787 321.176 311.023 320.464 311.023 319.528C311.023 318.592 311.787 317.785 312.731 317.733C329.419 316.733 346.208 317.407 362.62 319.481C363.552 319.599 364.307 320.459 364.307 321.395C364.307 322.332 363.552 322.991 362.62 322.872" fill="#A16ABC"/>
<path d="M362.62 309.588C346.208 307.513 329.419 306.84 312.731 307.841C311.787 307.892 311.023 307.18 311.023 306.244C311.023 305.308 311.787 304.501 312.731 304.449C329.419 303.449 346.208 304.123 362.62 306.197C363.552 306.315 364.307 307.175 364.307 308.111C364.307 309.048 363.552 309.707 362.62 309.588Z" fill="#A16ABC"/>
<path d="M362.62 296.305C346.208 294.231 329.419 293.557 312.731 294.557C311.787 294.609 311.023 293.897 311.023 292.96C311.023 292.024 311.787 291.217 312.731 291.165C329.419 290.165 346.208 290.839 362.62 292.913C363.552 293.031 364.307 293.891 364.307 294.828C364.307 295.764 363.552 296.423 362.62 296.305Z" fill="#A16ABC"/>
<path d="M303.268 335.088C289.145 336.271 275.041 338.731 261.155 342.036C261.155 327.621 261.155 313.208 261.155 298.793C275.041 295.488 289.145 293.028 303.268 291.845C303.268 306.26 303.268 320.673 303.268 335.088" fill="#A16ABC"/>
<path d="M257.088 286.295C253.877 287.075 250.663 287.9 247.441 288.783C247.441 348.135 247.441 407.485 247.441 466.836C250.663 465.952 253.877 465.126 257.088 464.348V286.295Z" fill="#EAD8AC"/>
<path d="M378.017 281.617L388.215 296.475V468.948L378.017 459.669V281.617Z" fill="#F7AB42"/>
<path d="M116.866 281.617L106.669 296.475V468.948L116.866 458.719V281.617Z" fill="#EAD8AC"/>
<path d="M264.535 351.253L257.031 356.167L266.379 370.443L273.883 365.528L264.535 351.253Z" fill="#F68D24"/>
<path d="M278.817 279.477C295.687 305.239 288.479 339.797 262.717 356.667C236.957 373.535 202.399 366.327 185.529 340.567C168.66 314.805 175.868 280.247 201.629 263.377C227.389 246.508 261.949 253.716 278.817 279.477Z" fill="#5E2791"/>
<path d="M270.805 284.724C284.777 306.06 278.807 334.683 257.471 348.653C236.135 362.625 207.513 356.656 193.541 335.32C179.569 313.984 185.54 285.361 206.876 271.389C228.212 257.417 256.835 263.388 270.805 284.724Z" fill="#C7EDFB"/>
<path d="M270.805 284.724C256.835 263.388 228.212 257.417 206.876 271.389L257.471 348.653C278.807 334.683 284.777 306.06 270.805 284.724Z" fill="#A9E3F8"/>
<path d="M212.256 279.605C232.204 266.543 258.519 270.915 273.276 288.976C272.535 287.532 271.715 286.112 270.805 284.724C256.835 263.388 228.212 257.417 206.876 271.389C185.54 285.361 179.569 313.984 193.541 335.32C194.451 336.708 195.424 338.027 196.451 339.284C185.796 318.536 192.308 292.668 212.256 279.605Z" fill="#8BD0F2"/>
<path d="M273.276 288.976C272.912 288.265 272.527 287.561 272.123 286.864C272.116 286.852 272.109 286.839 272.103 286.825C271.691 286.117 271.26 285.417 270.805 284.724C256.835 263.388 228.212 257.417 206.876 271.389L212.256 279.605C232.204 266.543 258.519 270.915 273.276 288.976" fill="#6AB1E3"/>
<path d="M271.909 363.225L265.056 367.713C263.613 368.657 263.164 370.567 264.033 372.056L299.52 432.861C300.455 434.463 302.54 434.955 304.092 433.939L317.008 425.481C318.559 424.465 318.943 422.356 317.848 420.859L276.299 364.024C275.281 362.632 273.352 362.281 271.909 363.225" fill="#5E2791"/>
<path d="M254.491 344.103C235.699 356.408 210.399 351.131 198.093 332.339C197.696 331.732 197.865 330.919 198.472 330.521C199.079 330.124 199.892 330.295 200.289 330.9C211.801 348.481 235.472 353.419 253.052 341.907C253.66 341.509 254.473 341.679 254.869 342.285C255.267 342.892 255.097 343.705 254.491 344.103" fill="white"/>
<path d="M267.6 372.441L300.251 427.873C300.999 429.144 302.659 429.532 303.892 428.724C305.072 427.951 305.415 426.376 304.661 425.183L270.325 370.779C269.849 370.024 268.848 369.807 268.101 370.295C267.388 370.763 267.168 371.707 267.6 372.441Z" fill="#874BAB"/>
<path d="M148.995 454.435L55.5068 470.496L45.9541 414.896L139.441 398.835L148.995 454.435Z" fill="#F68D24"/>
<path d="M148.995 454.435L111.491 426.28L114.136 424.216L148.995 454.435Z" fill="#C56D1C"/>
<path d="M55.5068 470.496L81.4625 431.439L78.2797 430.376L55.5068 470.496Z" fill="#C56D1C"/>
<path d="M92.6979 406.865L45.9541 414.896L47.264 422.521L93.6312 443.717C97.1645 445.332 101.327 444.617 104.118 441.916L140.752 406.459L139.441 398.835L92.6979 406.865" fill="#FAB32E"/>
<path d="M493.325 346.175H417.148C412.125 346.175 408.053 350.247 408.053 355.269V471.531C408.053 476.554 412.125 480.626 417.148 480.626H493.325C498.349 480.626 502.42 476.554 502.42 471.531V355.269C502.42 350.247 498.349 346.175 493.325 346.175" fill="#FDEEC5"/>
<path d="M419.237 338.601C417.644 338.601 416.353 339.893 416.353 341.485V355.372C416.353 356.965 417.644 358.256 419.237 358.256C420.831 358.256 422.121 356.965 422.121 355.372V341.485C422.121 339.893 420.831 338.601 419.237 338.601Z" fill="#F68D24"/>
<path d="M433.637 338.601C432.044 338.601 430.752 339.893 430.752 341.485V355.372C430.752 356.965 432.044 358.256 433.637 358.256C435.231 358.256 436.521 356.965 436.521 355.372V341.485C436.521 339.893 435.231 338.601 433.637 338.601Z" fill="#F68D24"/>
<path d="M448.037 338.601C446.444 338.601 445.152 339.893 445.152 341.485V355.372C445.152 356.965 446.444 358.256 448.037 358.256C449.631 358.256 450.921 356.965 450.921 355.372V341.485C450.921 339.893 449.631 338.601 448.037 338.601Z" fill="#F68D24"/>
<path d="M462.437 338.601C460.844 338.601 459.552 339.893 459.552 341.485V355.372C459.552 356.965 460.844 358.256 462.437 358.256C464.031 358.256 465.321 356.965 465.321 355.372V341.485C465.321 339.893 464.031 338.601 462.437 338.601Z" fill="#F68D24"/>
<path d="M476.837 338.601C475.244 338.601 473.952 339.893 473.952 341.485V355.372C473.952 356.965 475.244 358.256 476.837 358.256C478.431 358.256 479.721 356.965 479.721 355.372V341.485C479.721 339.893 478.431 338.601 476.837 338.601Z" fill="#F68D24"/>
<path d="M491.237 338.601C489.644 338.601 488.352 339.893 488.352 341.485V355.372C488.352 356.965 489.644 358.256 491.237 358.256C492.831 358.256 494.121 356.965 494.121 355.372V341.485C494.121 339.893 492.831 338.601 491.237 338.601Z" fill="#F68D24"/>
<path d="M491.848 369.711H418.627C417.371 369.711 416.352 370.729 416.352 371.984C416.352 373.24 417.371 374.259 418.627 374.259H491.848C493.104 374.259 494.121 373.24 494.121 371.984C494.121 370.729 493.104 369.711 491.848 369.711" fill="#A16ABC"/>
<path d="M491.848 380.321H418.627C417.371 380.321 416.352 381.339 416.352 382.595C416.352 383.851 417.371 384.868 418.627 384.868H491.848C493.104 384.868 494.121 383.851 494.121 382.595C494.121 381.339 493.104 380.321 491.848 380.321" fill="#A16ABC"/>
<path d="M491.848 390.932H418.627C417.371 390.932 416.352 391.949 416.352 393.205C416.352 394.461 417.371 395.479 418.627 395.479H491.848C493.104 395.479 494.121 394.461 494.121 393.205C494.121 391.949 493.104 390.932 491.848 390.932" fill="#A16ABC"/>
<path d="M491.848 401.543H418.627C417.371 401.543 416.352 402.56 416.352 403.816C416.352 405.072 417.371 406.089 418.627 406.089H491.848C493.104 406.089 494.121 405.072 494.121 403.816C494.121 402.56 493.104 401.543 491.848 401.543" fill="#A16ABC"/>
<path d="M491.848 412.152H418.627C417.371 412.152 416.352 413.171 416.352 414.427C416.352 415.683 417.371 416.7 418.627 416.7H491.848C493.104 416.7 494.121 415.683 494.121 414.427C494.121 413.171 493.104 412.152 491.848 412.152" fill="#A16ABC"/>
<path d="M491.848 422.763H418.627C417.371 422.763 416.352 423.781 416.352 425.037C416.352 426.292 417.371 427.311 418.627 427.311H491.848C493.104 427.311 494.121 426.292 494.121 425.037C494.121 423.781 493.104 422.763 491.848 422.763" fill="#A16ABC"/>
<path d="M491.848 433.373H418.627C417.371 433.373 416.352 434.392 416.352 435.647C416.352 436.903 417.371 437.921 418.627 437.921H491.848C493.104 437.921 494.121 436.903 494.121 435.647C494.121 434.392 493.104 433.373 491.848 433.373" fill="#A16ABC"/>
<path d="M491.848 443.984H418.627C417.371 443.984 416.352 445.003 416.352 446.257C416.352 447.513 417.371 448.532 418.627 448.532H491.848C493.104 448.532 494.121 447.513 494.121 446.257C494.121 445.003 493.104 443.984 491.848 443.984" fill="#A16ABC"/>
<path d="M491.848 454.595H418.627C417.371 454.595 416.352 455.612 416.352 456.868C416.352 458.124 417.371 459.142 418.627 459.142H491.848C493.104 459.142 494.121 458.124 494.121 456.868C494.121 455.612 493.104 454.595 491.848 454.595" fill="#A16ABC"/>
<path d="M491.848 465.205H418.627C417.371 465.205 416.352 466.223 416.352 467.479C416.352 468.735 417.371 469.752 418.627 469.752H491.848C493.104 469.752 494.121 468.735 494.121 467.479C494.121 466.223 493.104 465.205 491.848 465.205" fill="#A16ABC"/>
<path d="M481.768 409.633L469.275 422.127C467.249 424.153 467.249 427.436 469.275 429.461L485.436 445.623L505.264 425.795L489.103 409.633C487.077 407.608 483.793 407.608 481.768 409.633Z" fill="white"/>
<path d="M481.148 441.336L500.977 421.507L491.14 411.671L471.312 431.5L481.148 441.336" fill="#FDEEC5"/>
<path d="M493.391 414.088L473.729 433.749C472.916 434.563 472.916 435.881 473.729 436.695L510.019 472.985C510.832 473.799 512.151 473.799 512.964 472.985L532.625 453.324C533.439 452.511 533.439 451.192 532.625 450.379L496.336 414.088C495.523 413.275 494.204 413.275 493.391 414.088Z" fill="#E23229"/>
<path d="M493.795 242.788C498.504 246.935 499.471 256.609 497.98 260.859C496.584 261.401 494.841 261.1 493.511 260.409C492.18 259.72 491.132 258.556 490.42 257.237C489.332 255.221 489.007 252.807 489.52 250.575C490.033 248.343 491.381 246.313 493.241 244.976C493.725 244.628 493.261 242.521 493.795 242.788" fill="#5E2791"/>
<path d="M481.319 290.812C477.061 291.004 472.616 290.519 468.972 288.311C465.327 286.103 462.688 281.856 463.367 277.649C463.477 276.961 463.672 276.263 463.531 275.581C463.405 274.979 463.032 274.464 462.735 273.924C461.603 271.873 461.579 269.251 462.673 267.18C463.493 265.625 464.963 264.375 466.631 263.752C468.515 263.049 470.168 261.765 470.963 259.919C471.363 258.989 471.641 257.996 471.825 257.008C472.279 254.579 472.259 252.081 472.676 249.645C473.095 247.208 474.04 244.725 475.979 243.192C476.625 248.699 480.891 253.773 486.121 255.612C488.637 256.496 491.337 256.689 493.944 257.253C496.551 257.819 499.212 258.86 500.841 260.972C502.471 263.084 502.631 266.489 500.596 268.213C503.931 268.887 507.089 272.307 507.852 275.623C508.615 278.939 507.275 282.644 504.569 284.707C506.863 286.067 507.624 289.259 506.707 291.763C505.789 294.267 503.529 296.091 501.064 297.105C494.775 299.693 484.915 296.584 481.319 290.812" fill="#5E2791"/>
<path d="M472.716 267.772C472.716 267.772 474.7 260.445 475.1 257.944C475.501 255.441 478.704 256.292 478.704 256.292L482.007 262.948C482.007 262.948 480.805 266.1 483.177 270.5C484.731 272.595 478.753 274.007 477.503 275.057C476.252 276.108 479.325 273.244 479.325 273.244L473.399 270.604L472.716 267.772" fill="#DF8269"/>
<path d="M520.355 354.937L522.013 361.805C522.013 361.805 520.517 362.448 518.441 362.437C516.364 362.425 514.821 361.329 514.821 361.329L513.804 351.94L520.355 354.937Z" fill="#F8A28B"/>
<path d="M512.172 363.077C511.932 363.644 511.687 364.233 511.713 364.848C511.748 365.68 512.275 366.411 512.871 366.993C513.673 367.777 514.628 368.387 515.583 368.976C517.512 370.168 519.475 371.308 521.467 372.392C522.885 373.164 524.335 373.915 525.9 374.311C526.84 374.548 527.952 374.613 528.66 373.951C529.345 373.309 529.375 372.203 529.04 371.327C528.28 369.337 525.452 367.729 523.428 364.195C522.783 363.068 523.045 362.136 521.827 361.689C520.835 361.327 517.292 362.879 515.799 358.456C513.743 358.333 512.788 361.625 512.172 363.077" fill="#5E2791"/>
<path d="M527.465 373.72C525.697 373.189 524.077 372.259 522.496 371.305C520.273 369.967 518.088 368.567 515.943 367.108C514.881 366.387 513.82 365.643 512.943 364.707C512.583 364.323 512.261 363.884 512.035 363.411C511.848 363.875 511.692 364.353 511.713 364.848C511.748 365.68 512.275 366.411 512.871 366.993C513.673 367.777 514.628 368.387 515.583 368.976C517.512 370.168 519.475 371.308 521.467 372.392C522.885 373.164 524.335 373.915 525.9 374.311C526.836 374.548 527.943 374.611 528.651 373.956C528.248 373.921 527.844 373.833 527.465 373.72" fill="#F2EAF7"/>
<path d="M520.625 340.308L521.717 347.288C521.717 347.288 520.173 347.807 518.104 347.625C516.036 347.444 514.587 346.225 514.587 346.225L514.343 336.784L520.625 340.308Z" fill="#F8A28B"/>
<path d="M512.795 349.764C512.775 350.379 512.76 351.017 513.005 351.581C513.337 352.344 514.093 352.836 514.857 353.164C515.889 353.608 517 353.831 518.103 354.037C520.332 354.453 522.573 354.808 524.823 355.103C526.424 355.311 528.047 355.489 529.649 355.293C530.611 355.177 531.672 354.836 532.093 353.964C532.501 353.119 532.131 352.075 531.503 351.379C530.077 349.797 526.859 349.316 523.697 346.748C522.689 345.931 522.599 344.967 521.3 344.989C520.244 345.008 517.499 347.733 514.513 344.145C512.551 344.773 512.847 348.188 512.795 349.764Z" fill="#5E2791"/>
<path d="M530.897 354.179C529.056 354.321 527.209 354.037 525.391 353.717C522.836 353.271 520.292 352.752 517.765 352.165C516.515 351.875 515.257 351.563 514.101 351.005C513.627 350.777 513.169 350.484 512.787 350.124C512.78 350.624 512.807 351.127 513.005 351.581C513.337 352.344 514.093 352.836 514.857 353.164C515.889 353.608 517 353.831 518.103 354.037C520.332 354.453 522.573 354.808 524.823 355.103C526.424 355.311 528.047 355.488 529.649 355.293C530.608 355.177 531.663 354.837 532.087 353.972C531.7 354.084 531.291 354.148 530.897 354.179" fill="#F2EAF7"/>
<path d="M506.74 276.497C506.692 276.548 498.672 283.652 488.241 286.179C488.241 286.179 481.553 268.556 475.631 269.919C470.739 271.044 471.717 276.091 473.759 279.868C476.164 284.319 482.735 291.967 482.735 291.967C483.439 293.108 484.757 293.719 486.083 293.515C486.375 293.471 492.943 292.044 499.839 286.936C505.027 283.092 510.185 279.737 510.396 279.515L506.74 276.497" fill="#DF8269"/>
<path d="M480.739 317.019C480.739 317.019 461.812 328.499 477.577 328.697C495.045 328.919 503.819 328.103 503.819 328.103L513.976 358.163C513.976 358.163 514.816 359.445 517.315 359.148C520.827 358.729 521.417 356.941 521.417 356.941L514.809 324.131C514.161 319.615 512.263 316.181 509.177 315.455L493.444 311.752L480.739 317.019" fill="#AA2921"/>
<path d="M467.857 314.784C467.857 314.784 465.905 330.696 477.953 328.236C490.863 325.601 508.165 314.245 508.165 314.245L513.293 342.853C513.293 342.853 513.44 343.811 517.872 342.396C522.304 340.981 522.525 339.235 522.525 339.235L516.703 302.364C515.56 299.408 512.523 297.636 509.387 298.1L467.857 314.784" fill="#F1443D"/>
<path d="M513.959 320.599L522.265 337.592L522.525 339.235C522.525 339.235 522.304 340.981 517.872 342.396C516.148 342.947 515.077 343.136 514.407 343.164C514.004 339.319 512.644 325.168 513.959 320.599Z" fill="#AA2921"/>
<path d="M467.857 314.784C470.684 317.337 484.459 318.995 489.883 305.935C486.975 301.749 487.303 300.803 487.597 298.607C488.424 292.455 491.235 285.963 490.697 283.225C489.544 277.355 484.996 272.475 483.177 270.5C482.44 272.344 478.08 271.011 472.716 267.772C466.744 272.756 471.451 280.369 470.889 297.877C470.799 300.676 467.828 311.541 467.857 314.784" fill="#8BD0F2"/>
<path d="M506.537 283.705C506.481 283.745 497.356 289.36 486.645 290.049C486.645 290.049 480.116 272.825 476.085 272.356C471.213 271.789 471.356 276.289 472.716 280.363C474.317 285.163 481.056 294.475 481.056 294.475C481.552 295.72 482.568 296.297 483.908 296.327C484.203 296.333 488.428 296.252 496.419 293.553C502.536 291.488 509.372 287.491 509.619 287.307L506.537 283.705Z" fill="#F8A28B"/>
<path d="M493.56 258.628C491.137 263.64 487.081 267.845 485.356 267.871C482.449 267.915 477.437 262.844 475.721 259.083C473.601 254.433 473.923 248.9 476.239 245.664C479.716 240.804 485.947 240.284 491.025 243.313C495.207 245.807 497.583 250.309 493.56 258.628" fill="#F8A28B"/>
<path d="M487.511 249.92C486.56 252.564 485.184 254.651 482.891 256.153C482.983 254.065 482.523 252.297 481.688 251.888C480.772 251.439 479.592 251.943 479.051 252.808C478.508 253.673 478.499 254.78 478.739 255.773C478.924 256.539 479.096 257.615 478.352 257.876C476.675 258.464 475.276 260.127 474.301 261.613C474.173 259.305 474.288 257.893 473.737 256.38C473.188 254.865 470.991 247.851 475.792 242.643C481.751 236.18 490.971 239.363 494.176 243.212C497.803 247.568 496.307 253.311 495.017 255.571C492.345 253.888 489.427 252.284 487.511 249.92" fill="#5E2791"/>
<path d="M507.565 315.076L509.177 315.455C512.263 316.181 514.161 319.615 514.809 324.131L521.417 356.941C521.417 356.941 520.827 358.729 517.315 359.148C514.816 359.445 513.976 358.163 513.976 358.163L503.817 328.103C503.817 328.103 501.844 328.287 497.911 328.456L507.565 315.076" fill="#F1443D"/>
<path d="M478.499 255.071C479.241 256.644 479.324 258.519 478.723 260.152C478.413 260.991 477.923 261.819 478.004 262.709C478.085 263.62 478.744 264.361 479.4 264.997C480.055 265.633 480.772 266.281 481.033 267.156C481.295 268.031 480.852 269.187 479.947 269.305C480.995 270.135 482.175 270.983 482.723 272.201C483.271 273.421 483.383 274.877 482.812 276.087C482.243 277.295 480.92 278.172 479.593 278.017C478.52 277.893 477.628 277.173 476.752 276.54C475.876 275.907 474.844 275.311 473.779 275.489C472.785 275.655 472.025 276.456 471.455 277.284C470.289 278.971 469.577 280.967 469.411 283.008C467.507 280.853 465.519 278.527 465.104 275.68C464.699 272.885 465.904 270.097 467.449 267.733C468.993 265.369 470.907 263.237 472.193 260.724C472.871 259.399 473.372 257.972 474.257 256.776C475.144 255.581 477.02 254.907 478.499 255.071" fill="#5E2791"/>
<path d="M489.203 257.131C488.819 258.049 488.911 258.961 489.408 259.169C489.905 259.377 490.619 258.801 491.003 257.884C491.387 256.965 491.295 256.053 490.797 255.845C490.3 255.637 489.587 256.213 489.203 257.131Z" fill="#5E2791"/>
<path d="M487.976 264.945L488.431 264.287C488.412 264.272 486.485 262.904 486.716 260.796L485.92 260.709C485.636 263.297 487.88 264.879 487.976 264.945Z" fill="#5E2791"/>
<path d="M506.537 283.705L506.629 282.111H516.359C516.359 282.111 513.036 286.231 509.619 287.307C506.451 286.183 506.537 283.705 506.537 283.705" fill="#F8A28B"/>
<path d="M506.74 276.489C506.74 276.489 510.505 274.395 513.488 278.429L514.104 279.316C514.276 279.563 514.228 279.9 513.993 280.088C513.765 280.272 513.436 280.255 513.229 280.048L512.724 279.543L509.767 281.412H507.175L506.74 276.489Z" fill="#DF8269"/>
<path d="M498.623 280.577H516.251L522.513 262.397C522.684 261.901 523.225 261.637 523.723 261.808C524.219 261.98 524.483 262.52 524.312 263.017L517.476 282.859H498.623C497.993 282.859 497.483 282.348 497.483 281.717C497.483 281.088 497.993 280.577 498.623 280.577Z" fill="#402567"/>
<path d="M429.959 435.223H436.708C438.472 435.223 439.939 436.58 440.073 438.339L441.683 459.347C441.832 461.307 440.283 462.979 438.317 462.979H430.284L429.959 435.223" fill="#F1443D"/>
<path d="M410.484 511.012L410.113 518.72C410.073 519.526 409.584 520.152 408.992 520.152H398.503C394.932 520.152 393.416 517.884 397.084 515.883C400.752 513.88 403.339 509.771 403.339 509.771L410.484 511.012" fill="#F68D24"/>
<path d="M421.863 511.012L422.233 518.72C422.272 519.526 422.763 520.152 423.355 520.152H433.844C437.413 520.152 438.929 517.884 435.261 515.883C431.595 513.88 429.008 509.771 429.008 509.771L421.863 511.012" fill="#F68D24"/>
<path d="M420.861 388.2V383.596H412.579V388.2L407.875 389.901L416.72 398.408L425.565 389.901L420.861 388.2Z" fill="#F8A28B"/>
<path d="M430.228 432.999H402.785L402.177 510.844C402.177 510.844 402.943 511.74 407.136 511.74C411.328 511.74 410.484 511.36 410.484 511.36L416.507 447.872L421.863 511.244C421.863 511.244 421.988 512.05 426.18 512.05C430.373 512.05 431.516 511.216 431.516 511.216L430.228 432.999" fill="#402567"/>
<path d="M430.844 391.644L424.888 389.545C424.888 389.545 421.343 394.18 416.813 394.2C412.284 394.18 408.625 389.567 408.625 389.567L402.783 391.644C398.879 393.245 405.747 417.043 402.279 436.143C405.609 438.611 411.264 439.688 416.813 439.691C422.363 439.688 428.016 438.611 431.348 436.143C427.879 417.043 434.748 393.245 430.844 391.644Z" fill="#F68D24"/>
<path d="M407.875 389.901L437.135 445.704L433.983 448.833L403.592 391.356L407.875 389.901Z" fill="#E23229"/>
<path d="M444.491 419.455L439.351 405.144L431.371 409.133L438.152 421.843L427.383 436.731C426.373 438.125 424.895 439.108 423.217 439.497C423.217 439.497 423.58 441.372 425.999 442.701C428.417 444.032 430.111 443.548 430.111 443.548L430.113 443.521C430.308 442.001 430.905 440.563 431.844 439.353L443.936 423.767C444.768 422.489 444.972 420.901 444.491 419.455" fill="#F8A28B"/>
<path d="M430.284 391.485C430.284 391.485 434.697 392.344 436.083 395.357C438.708 401.064 441.96 409.075 441.96 409.075L432.943 414.909L430.829 412.268L430.284 391.485" fill="#F68D24"/>
<path d="M420.861 387.344V383.596H412.579V387.344C414.052 388.496 415.555 389.168 416.72 389.168C417.885 389.168 419.388 388.495 420.861 387.344Z" fill="#DF8269"/>
<path d="M408.367 375.571C408.604 377.155 408.857 378.429 407.801 378.588C406.745 378.747 405.149 377.865 404.589 376.365C404 374.789 404.549 373.288 405.605 373.129C406.661 372.972 408.129 373.987 408.367 375.571Z" fill="#EC977E"/>
<path d="M425.184 375.571C424.947 377.155 424.693 378.429 425.749 378.588C426.805 378.747 428.4 377.865 428.961 376.365C429.549 374.789 429.001 373.288 427.945 373.129C426.889 372.972 425.421 373.987 425.184 375.571Z" fill="#EC977E"/>
<path d="M416.721 361.845C408.788 361.845 406.907 367.541 406.907 374.407C406.907 381.173 413.281 386.96 416.721 386.96C420.163 386.96 426.536 381.173 426.536 374.407C426.536 367.541 424.655 361.845 416.721 361.845Z" fill="#F8A28B"/>
<path d="M426.389 376.192C424.773 374.769 423.743 372.557 423.637 370.407C419.267 371.459 413.689 371.284 409.277 370.425C408.859 372.445 408.561 374.496 406.891 375.708C406.011 373.623 405.132 371.536 404.649 369.324C404.168 367.113 404.108 364.759 404.863 362.625C405.085 361.997 405.565 361.284 406.224 361.393C406.892 361.505 407.104 362.348 407.169 363.023C407.465 360.16 409.017 357.444 411.255 355.633C411.835 355.165 412.481 354.748 413.211 354.6C413.941 354.451 414.768 354.615 415.272 355.164C415.775 355.713 415.824 356.675 415.271 357.172C417.716 354.908 421.349 354.011 424.591 354.785C425.532 355.011 426.556 355.491 426.82 356.421C427.012 357.1 426.724 357.843 426.253 358.369C425.784 358.897 425.155 359.251 424.539 359.595C425.651 360.001 426.523 360.883 427.105 361.913C427.689 362.943 427.973 364.12 428.091 365.297C428.453 368.912 427.516 372.737 426.389 376.192" fill="#5E2791"/>
<path d="M413.689 375.86C413.689 376.924 413.223 377.785 412.647 377.785C412.069 377.785 411.603 376.924 411.603 375.86C411.603 374.796 412.069 373.935 412.647 373.935C413.223 373.935 413.689 374.796 413.689 375.86Z" fill="#5E2791"/>
<path d="M421.661 375.86C421.661 376.924 421.193 377.785 420.617 377.785C420.041 377.785 419.575 376.924 419.575 375.86C419.575 374.796 420.041 373.935 420.617 373.935C421.193 373.935 421.661 374.796 421.661 375.86Z" fill="#5E2791"/>
<path d="M416.652 383.868C416.533 383.868 416.46 383.863 416.443 383.861L416.499 383.007C416.524 383.009 419.048 383.144 420.255 381.227L420.98 381.683C419.707 383.705 417.368 383.868 416.652 383.868" fill="#5E2791"/>
<path d="M412.579 429.68C412.579 429.68 400.001 430.779 390.085 422.797C388.043 421.153 387.572 418.491 388.247 416.516C390.311 410.471 396.373 402.241 396.373 402.241L402.411 407.08L395.648 418.081C395.648 418.081 400.481 423.181 410.4 424.128C411.319 425.145 412.579 429.68 412.579 429.68" fill="#F8A28B"/>
<path d="M402.783 391.644C402.783 391.644 399.519 392.179 397.16 396.467C394.131 401.969 391.355 406.987 391.355 406.987L399.517 414.968L402.983 410.209C402.983 410.209 403.061 405.423 402.979 400.553C402.911 396.569 402.783 391.644 402.783 391.644" fill="#F68D24"/>
<path d="M424.521 407.801H409.172V431.54H424.521V407.801Z" fill="#FDEEC5"/>
<path d="M416.255 424.324C415.64 424.035 414.879 424.279 414.2 424.464C413.459 424.668 412.695 424.797 411.927 424.851C411.459 424.883 410.975 424.884 410.545 424.731C410.496 424.713 410.444 424.688 410.389 424.659C410.388 424.659 410.388 424.657 410.387 424.657C410.321 424.621 410.253 424.579 410.184 424.529C409.46 424.043 409.173 423.271 409.173 423.271V419.671C408.339 420.432 408.092 421.813 407.08 422.381C405.085 423.499 404.473 425.125 404.815 427.096C404.932 427.772 405.169 428.463 405.719 428.937C406.243 429.391 406.984 429.591 407.712 429.711C409.683 430.035 411.772 429.867 413.675 429.231C414.199 429.055 414.716 428.841 415.155 428.528C415.752 428.099 416.169 427.505 416.507 426.896C416.747 426.461 416.955 426 416.96 425.523C416.964 425.045 416.727 424.547 416.255 424.324" fill="#F8A28B"/>
<path d="M201.205 383.959H195.411V430.181H210.565C213.501 430.181 215.881 427.801 215.881 424.865V398.635C215.881 390.529 209.311 383.959 201.205 383.959" fill="#402567"/>
<path d="M182.773 434.899L181.54 509.454L189.165 510.737L201.836 435.627C201.836 435.627 186.577 428.984 182.773 434.899Z" fill="#E23229"/>
<path d="M183.957 436.093L214.652 509.454L222.589 506.926L203.153 436.093C203.153 436.093 184.617 432.2 183.957 436.093Z" fill="#F1443D"/>
<path d="M205.656 437.36C202.165 440.847 186.707 441.805 180.529 436.648C185.421 421.357 179.049 405.837 183.207 391.545C183.756 389.657 186.803 387.653 187.301 387.607C187.301 387.607 191.305 385.621 197.676 386.376C199.955 387.531 205.767 390.436 205.291 397.037C203.608 420.381 204.28 427.76 205.656 437.36" fill="#5E2791"/>
<path d="M215.361 446.445H184.941V426.859H215.361V446.445Z" fill="white"/>
<path d="M197.676 406.608L198.895 415.129L198.889 441.061L203.701 441.539L206.637 417.796L205.656 404.512L197.676 406.608" fill="#F8A28B"/>
<path d="M195.284 409.909C195.284 409.909 191.876 393.296 195.765 390.587C200.453 387.323 204.829 389.204 206.208 395.588C207.585 401.972 207.504 409.477 207.504 409.477C207.504 409.477 204.787 410.915 201.547 410.953C198.307 410.992 195.284 409.909 195.284 409.909" fill="#5E2791"/>
<path d="M198.889 441.061L196.463 442.679L195.909 446.553C195.768 447.539 196.456 448.451 197.441 448.587L201.304 449.117C202.339 449.26 203.277 448.491 203.34 447.448L203.701 441.539C203.701 441.539 200.68 438.981 198.889 441.061" fill="#F8A28B"/>
<path d="M197.676 386.376L194.291 374.629L188.599 380.872C188.599 380.872 188.776 384.387 189.471 386.86C182.875 395.833 192.4 392.117 197.676 386.376" fill="#F8A28B"/>
<path d="M188.672 381.881C188.775 383.107 189.008 385.212 189.471 386.86C189.292 387.103 189.132 387.331 188.977 387.553C195.052 384.791 195.411 378.803 195.411 378.803C194.168 377.763 190.465 380.455 188.672 381.881" fill="#DF8269"/>
<path d="M181.993 371.573C181.883 376.912 183.521 382.272 184.984 383.045C187.451 384.347 193.941 382.193 197.045 379.724C200.881 376.673 203.013 371.803 202.443 368.029C201.585 362.361 196.484 359.205 190.825 359.584C186.165 359.896 182.175 362.711 181.993 371.573Z" fill="#F8A28B"/>
<path d="M182.468 367.244C186.043 365.796 189.788 366.183 193.2 367.98C192.737 369.657 192.628 371.333 193.176 372.985C193.516 372.353 193.879 371.756 194.353 371.219C194.828 370.68 195.453 370.244 196.163 370.132C196.871 370.02 197.661 370.285 198.052 370.888C198.476 371.543 198.353 372.404 198.135 373.153C197.828 374.204 197.333 375.247 196.476 375.927C195.617 376.605 194.333 376.831 193.417 376.232C193.919 378.54 194.943 380.776 196.507 382.547C199.616 379.623 202.259 375.933 204.079 372.072C204.772 370.599 205.371 369.023 205.317 367.396C205.264 365.768 204.425 364.076 202.929 363.432C203.752 363.432 168.619 341.145 182.468 367.244" fill="#5E2791"/>
<path d="M186.956 371.889C186.833 372.893 186.293 373.655 185.749 373.588C185.205 373.523 184.864 372.655 184.985 371.649C185.108 370.645 185.648 369.885 186.192 369.951C186.736 370.017 187.079 370.885 186.956 371.889Z" fill="#5E2791"/>
<path d="M184.112 379.413L184.04 378.603C184.065 378.6 186.456 378.359 187.311 376.379L188.059 376.701C187.009 379.133 184.231 379.403 184.112 379.413Z" fill="#5E2791"/>
<path d="M193.012 426.859H190.239V401.64C190.239 397.432 191.289 394.731 193.985 392.003C196.32 389.643 199.164 388.112 202.369 386.497L203.619 388.972C200.633 390.479 197.999 391.891 195.957 393.953C194.093 395.839 193.012 397.703 193.012 401.64V426.859" fill="#402567"/>
<path d="M181.54 509.454C181.54 509.454 152.961 517.426 179.655 517.254C188.495 517.08 188.495 517.08 188.495 517.08L189.165 510.737L181.54 509.454" fill="#402567"/>
<path d="M214.652 509.454L210.075 513.355C210.075 513.355 195.688 518.296 206.608 518.293C217.528 518.29 224.447 514.332 224.447 514.332L222.589 506.926L214.652 509.454" fill="#402567"/>
<path d="M187.301 387.607C187.193 387.616 186.949 387.733 186.649 387.909C185.512 389.82 183.503 393.584 181.937 398.633C181.752 400.723 181.693 402.831 181.728 404.956C182.788 401.187 186.095 390.184 189.469 386.861C188.071 387.225 187.301 387.607 187.301 387.607Z" fill="#402567"/>
</g>
<defs>
<clipPath id="clip0_1_2">
<rect width="569.04" height="587.44" fill="white"/>
</clipPath>
</defs>
</svg>
